<svg width="52" height="52" viewBox="0 0 52 52" fill="none" xmlns="http://www.w3.org/2000/svg">
<g id="Car_Document">
<path id="Vector" d="M6.12524 14.4994H28.4532C28.9012 14.4994 29.2532 14.1475 29.2532 13.6994C29.2532 13.2596 28.9012 12.8994 28.4532 12.8994H6.12524C5.6852 12.8994 5.32524 13.2596 5.32524 13.6994C5.32524 14.1475 5.6852 14.4994 6.12524 14.4994Z" fill="#FB9D2F"/>
<path id="Vector_2" d="M6.12524 18.1713H28.4532C28.9012 18.1713 29.2532 17.8115 29.2532 17.3713C29.2532 16.9314 28.9012 16.5713 28.4532 16.5713H6.12524C5.6852 16.5713 5.32524 16.9314 5.32524 17.3713C5.32524 17.8115 5.6852 18.1713 6.12524 18.1713Z" fill="#FB9D2F"/>
<path id="Vector_3" d="M6.12524 21.8354H17.2934C17.7332 21.8354 18.0934 21.4756 18.0934 21.0354C18.0934 20.5955 17.7332 20.2354 17.2934 20.2354H6.12524C5.6852 20.2354 5.32524 20.5955 5.32524 21.0354C5.32524 21.4756 5.6852 21.8354 6.12524 21.8354Z" fill="#FB9D2F"/>
<path id="Vector_4" d="M11.9733 24.8436H7.79731C6.86918 24.8436 6.10922 25.5956 6.10922 26.5155V30.7077C6.10922 31.6276 6.86918 32.3796 7.79731 32.3796H11.9733C12.9092 32.3796 13.6614 31.6276 13.6614 30.7077V26.5155C13.6614 25.5956 12.9092 24.8436 11.9733 24.8436ZM11.9733 28.0917L9.82934 30.2354C9.52613 30.5386 9.03385 30.551 8.70122 30.2354L7.79731 29.3315C7.4852 29.0198 7.4852 28.5077 7.79731 28.1956C8.10922 27.8835 8.61332 27.8835 8.93325 28.1956L9.26918 28.5397L10.8454 26.9636C11.1573 26.6514 11.6614 26.6514 11.9733 26.9636C12.2852 27.2757 12.2852 27.7796 11.9733 28.0917Z" fill="#FB9D2F"/>
<path id="Vector_5" d="M11.9733 35.1237H7.79731C6.86918 35.1237 6.10922 35.8756 6.10922 36.8033V40.9877C6.10922 41.9155 6.86918 42.6674 7.79731 42.6674H11.9733C12.9092 42.6674 13.6614 41.9155 13.6614 40.9877V36.8033C13.6614 35.8756 12.9092 35.1237 11.9733 35.1237ZM11.9172 38.3877L9.78129 40.5315C9.46202 40.8507 8.94516 40.8313 8.64536 40.5315L7.74125 39.6276C7.42934 39.3155 7.42934 38.8115 7.74125 38.4916C8.05317 38.1795 8.56528 38.1795 8.87739 38.4916L9.21332 38.8354L10.7893 37.2596C11.1012 36.9475 11.6053 36.9475 11.9172 37.2596C12.2293 37.5713 12.2293 38.0756 11.9172 38.3877Z" fill="#FB9D2F"/>
<path id="Vector_6" d="M24.7493 26.2354H18.4532C18.0133 26.2354 17.6532 26.5955 17.6532 27.0354C17.6532 27.4834 18.0133 27.8354 18.4532 27.8354H24.7493C25.1893 27.8354 25.5493 27.4834 25.5493 27.0354C25.5493 26.5955 25.1893 26.2354 24.7493 26.2354Z" fill="#FB9D2F"/>
<path id="Vector_7" d="M24.4692 29.3557H18.4532C18.0133 29.3557 17.6532 29.7155 17.6532 30.1557C17.6532 30.5956 18.0133 30.9557 18.4532 30.9557H24.4692C24.9172 30.9557 25.2692 30.5956 25.2692 30.1557C25.2692 29.7155 24.9172 29.3557 24.4692 29.3557Z" fill="#FB9D2F"/>
<path id="Vector_8" d="M4.70923 47.4596H22.5008V50.1369C22.5008 50.953 23.1684 51.6205 23.9846 51.6205H27.545C28.3645 51.6205 29.0288 50.9565 29.0288 50.1369V48.0436H42.9327V50.1287C42.9327 50.9526 43.6006 51.6205 44.4248 51.6205H47.9768C48.7963 51.6205 49.4608 50.9565 49.4608 50.1369C49.4608 49.1627 49.4606 53.6655 49.4613 40.6115C49.4613 39.9475 49.2853 39.2994 48.9172 38.6834L48.7262 38.4045L50.7765 37.5776C51.1991 37.4084 51.4667 36.9998 51.4667 36.5494V35.9506C51.4667 35.5846 51.2202 35.2533 50.861 35.1549L48.4102 34.5565C48.2977 34.5283 48.1848 34.5565 48.0934 34.6268L47.2206 35.3776C47.1895 35.2974 44.6437 28.7221 44.8053 29.1397C44.4053 28.1475 43.5092 27.4834 42.4613 27.4033C39.6613 27.1877 36.8454 27.1076 34.0454 27.1795V10.1155C34.0454 7.81155 32.1733 5.93967 29.8692 5.93967H26.7893C26.2692 4.94749 25.2293 4.26741 24.0213 4.26741H21.0692V4.15569C21.0692 2.03116 19.3348 0.379517 17.2934 0.379517C15.2053 0.379517 13.5092 2.07561 13.5092 4.15569V4.26741H10.5573C9.35959 4.26741 8.32274 4.9307 7.7893 5.93967H4.70923C2.40532 5.93967 0.533249 7.81155 0.533249 10.1155V43.2834C0.533249 45.5877 2.40532 47.4596 4.70923 47.4596ZM26.6053 44.0115H24.1573V41.5795H27.7573L26.6053 44.0115ZM40.0454 44.8116C31.9209 44.8116 32.0293 44.8238 31.9493 44.8033C31.2059 44.7518 30.6684 43.9639 30.9893 43.2033L31.9813 40.9076C32.1492 40.516 32.5553 40.2115 33.0454 40.2115H39.0533C39.5092 40.2115 39.9252 40.4834 40.1092 40.9076L41.1013 43.2033C41.4343 43.9925 40.8451 44.8116 40.0454 44.8116ZM47.7332 41.5795V44.0115H45.2933L44.1332 41.5795H47.7332ZM42.3332 28.9955C42.7813 29.0276 43.1493 29.3076 43.3172 29.7397C43.3498 29.8238 46.2385 37.2854 46.0613 36.8276C39.9749 36.8276 35.2723 36.8276 25.9092 36.8276L28.6532 29.7155C28.8053 29.3237 29.2053 29.0276 29.6373 28.9955C33.9926 28.6582 37.9187 28.6582 42.3332 28.9955ZM2.13325 10.1155C2.13325 8.69163 3.2852 7.53967 4.70923 7.53967H7.45317C7.53325 9.17952 8.8934 10.4834 10.5573 10.4834H24.0213C25.6934 10.4834 27.0532 9.17952 27.1332 7.53967H29.8692C31.2934 7.53967 32.4454 8.69163 32.4454 10.1155V27.2354C31.4692 27.2674 30.4934 27.3237 29.5172 27.4033C28.4774 27.4834 27.5493 28.1635 27.1573 29.1397L24.8133 35.2198L23.9813 34.4994C23.8934 34.4276 23.7813 34.4033 23.6692 34.4276L21.2213 35.0276C20.8614 35.1315 20.6133 35.4596 20.6133 35.8276V36.4276C20.6133 36.8756 20.8774 37.2834 21.3012 37.4514L23.3332 38.2674L23.0133 38.7315C22.6774 39.2994 22.5012 39.9475 22.5012 40.6115V45.8596H4.70923C3.2852 45.8596 2.13325 44.7076 2.13325 43.2834V10.1155Z" fill="#FB9D2F"/>
</g>
</svg>
