<svg width="36" height="52" viewBox="0 0 36 52" fill="none" xmlns="http://www.w3.org/2000/svg">
<g id="Car_Application">
<path id="Vector" d="M29.8479 0.776123H6.14384C2.94384 0.776123 0.336029 3.38394 0.336029 6.59175V45.4082C0.336029 48.616 2.94384 51.2238 6.14384 51.2238H29.8479C33.056 51.2238 35.664 48.616 35.664 45.4082V6.59175C35.664 3.38394 33.056 0.776123 29.8479 0.776123ZM18.2079 2.88003H20.9438C21.3759 2.88003 21.7278 3.23198 21.7278 3.66401C21.7278 4.10386 21.3759 4.45581 20.9438 4.45581H18.2079C17.7679 4.45581 17.4159 4.10386 17.4159 3.66401C17.4159 3.23198 17.7679 2.88003 18.2079 2.88003ZM14.7519 2.94409C15.2381 2.73369 15.8399 3.05783 15.8399 3.66401C15.8399 4.12361 15.479 4.45581 15.056 4.45581C14.6154 4.45581 14.264 4.05293 14.264 3.66401C14.264 3.38639 14.4065 3.10065 14.7519 2.94409ZM17.9999 48.9519C17.1118 48.9519 16.3919 48.2402 16.3919 47.3441C16.3919 46.4558 17.1118 45.7441 17.9999 45.7441C18.888 45.7441 19.6079 46.4558 19.6079 47.3441C19.6079 48.2402 18.888 48.9519 17.9999 48.9519ZM34.064 43.48H1.93603V6.59175C1.93603 4.27183 3.82392 2.37612 6.14384 2.37612H9.97587L11.1839 5.12808C11.6239 6.08784 12.5759 6.71987 13.6399 6.71987H22.3679C23.4239 6.71987 24.3839 6.08784 24.8079 5.12808L26.0239 2.37612H29.8479C32.1759 2.37612 34.064 4.27183 34.064 6.59175V43.48Z" fill="#FB9D2F"/>
<path id="Vector_2" d="M26.8079 14.416H25.5438L23.9679 11.2719C23.4399 10.2238 22.3839 9.57617 21.2159 9.57617H12.8479C11.872 9.57617 10.9438 10.048 10.3599 10.832L7.71181 14.448C6.15985 14.6559 4.95985 15.984 4.95985 17.5918V19.5602C4.95985 20.4719 5.70399 21.216 6.61591 21.216H7.2079C7.55185 22.4559 8.70399 23.368 10.0559 23.368C11.4079 23.368 12.5518 22.4559 12.904 21.216H22.0559C22.3999 22.4559 23.5438 23.368 24.8958 23.368C26.2479 23.368 27.3919 22.4559 27.736 21.216H29.088C30.1679 21.216 31.0399 20.3359 31.0399 19.2641V18.648C31.0399 16.3121 29.1438 14.416 26.8079 14.416ZM10.0559 21.768C9.30492 21.768 8.68798 21.1541 8.68798 20.416C8.68798 19.6641 9.30399 19.0559 10.0559 19.0559C10.8079 19.0559 11.4159 19.6641 11.4159 20.416C11.4159 21.1315 10.8278 21.768 10.0559 21.768ZM15.864 15.7039H10.3679C10.4266 15.6238 12.6778 12.5506 12.536 12.7441C12.664 12.568 12.872 12.4641 13.0958 12.4641H15.864V15.7039ZM17.464 15.7039V12.4641H20.904C21.088 12.4641 21.2559 12.5281 21.3839 12.648C21.5155 12.7628 21.4624 12.7106 22.9679 15.7039H17.464ZM24.8958 21.768C24.1252 21.768 23.536 21.1327 23.536 20.416C23.536 19.6641 24.1438 19.0559 24.8958 19.0559C25.6479 19.0559 26.2559 19.6641 26.2559 20.416C26.2559 21.1315 25.6676 21.768 24.8958 21.768Z" fill="#FB9D2F"/>
<path id="Vector_3" d="M8.52783 31.9441H11.5999C12.4958 31.9441 13.2319 31.216 13.2319 30.3121V27.248C13.2319 26.3441 12.4958 25.616 11.5999 25.616H8.52783C7.63193 25.616 6.8958 26.3441 6.8958 27.248V30.3121C6.8958 31.216 7.63193 31.9441 8.52783 31.9441Z" fill="#FB9D2F"/>
<path id="Vector_4" d="M17.7679 27.8159H29.0958C29.5438 27.8159 29.8958 27.4558 29.8958 27.0159C29.8958 26.5761 29.5438 26.2159 29.0958 26.2159H17.7679C17.32 26.2159 16.9679 26.5761 16.9679 27.0159C16.9679 27.4558 17.32 27.8159 17.7679 27.8159Z" fill="#FB9D2F"/>
<path id="Vector_5" d="M17.7679 31.352H23.8958C24.3438 31.352 24.6958 30.9918 24.6958 30.552C24.6958 30.1039 24.3438 29.752 23.8958 29.752H17.7679C17.32 29.752 16.9679 30.1039 16.9679 30.552C16.9679 30.9918 17.32 31.352 17.7679 31.352Z" fill="#FB9D2F"/>
<path id="Vector_6" d="M11.672 33.9519H8.5999C7.704 33.9519 6.96786 34.68 6.96786 35.5839V38.648C6.96786 39.5519 7.704 40.28 8.5999 40.28H11.672C12.5679 40.28 13.304 39.5519 13.304 38.648V35.5839C13.304 34.68 12.5679 33.9519 11.672 33.9519Z" fill="#FB9D2F"/>
<path id="Vector_7" d="M29.1679 34.5519H17.8319C17.3919 34.5519 17.0319 34.9038 17.0319 35.3519C17.0319 35.7917 17.3919 36.1519 17.8319 36.1519H29.1679C29.6079 36.1519 29.9679 35.7917 29.9679 35.3519C29.9679 34.9038 29.6079 34.5519 29.1679 34.5519Z" fill="#FB9D2F"/>
<path id="Vector_8" d="M23.9679 38.0801H17.8319C17.3919 38.0801 17.0319 38.4402 17.0319 38.8801C17.0319 39.3281 17.3919 39.6801 17.8319 39.6801H23.9679C24.4079 39.6801 24.7679 39.3281 24.7679 38.8801C24.7679 38.4402 24.4079 38.0801 23.9679 38.0801Z" fill="#FB9D2F"/>
</g>
</svg>
