<svg width="52" height="52" viewBox="0 0 52 52" fill="none" xmlns="http://www.w3.org/2000/svg">
<g id="Fob_Key">
<path id="Vector" d="M51.6997 45.756V18.2201C51.6997 15.0361 49.1076 12.4521 45.9236 12.4521H41.8117V11.0521C41.8117 9.62791 40.6597 8.47595 39.2357 8.47595H38.1877V6.03611C38.1877 2.97205 35.6917 0.475952 32.6277 0.475952H15.3957C12.3316 0.475952 9.83573 2.97205 9.83573 6.03611V7.17205C7.61972 7.26814 5.51561 7.59587 3.57167 8.14822C2.38768 8.47595 1.47567 9.42009 1.17167 10.6041C0.0996955 14.7482 0.0197148 18.5482 0.915613 21.908C1.31561 23.4119 2.66766 24.4599 4.2037 24.4599H4.23573V26.7881C4.23573 28.1638 5.23573 29.2998 6.54764 29.5162V46.94C6.54764 47.1318 6.61972 47.324 6.74764 47.4681L10.0997 51.2521C10.2516 51.4201 10.4677 51.524 10.6997 51.524C10.9236 51.524 11.1476 51.4201 11.2997 51.2521L14.6437 47.4681C14.7717 47.324 14.8437 47.1318 14.8437 46.94V29.5162C16.1557 29.2998 17.1557 28.1638 17.1557 26.7881V24.4521C18.6197 24.3799 19.8837 23.356 20.2677 21.908C21.1717 18.5482 21.0837 14.7482 20.0197 10.6041C19.7156 9.42009 18.7957 8.47595 17.6197 8.14822C15.6997 7.60408 13.6197 7.27595 11.4357 7.17986V6.03611C11.4357 3.85212 13.2117 2.07595 15.3957 2.07595H32.6277C34.8117 2.07595 36.5877 3.85212 36.5877 6.03611V8.47595H35.5396C34.1156 8.47595 32.9637 9.62791 32.9637 11.0521V12.4521H28.6677C25.4837 12.4521 22.8997 15.0361 22.8997 18.2201V45.756C22.8997 48.9318 25.4837 51.524 28.6677 51.524H45.9236C49.1076 51.524 51.6997 48.9318 51.6997 45.756ZM11.4997 45.876C11.4997 46.3162 11.1396 46.676 10.6997 46.676C10.2516 46.676 9.8997 46.3162 9.8997 45.876V35.972C9.8997 35.5318 10.2516 35.1721 10.6997 35.1721C11.1396 35.1721 11.4997 35.5318 11.4997 35.972V45.876ZM15.5557 26.7881C15.5557 27.34 15.1717 27.8041 14.6516 27.924C14.5637 27.9482 14.4757 27.956 14.3877 27.956H7.0037C6.91561 27.956 6.82772 27.9482 6.73964 27.924C6.21972 27.8041 5.83573 27.34 5.83573 26.7881V24.4599H15.5557V26.7881ZM15.6997 12.6041C15.6997 13.8681 13.4357 14.892 10.6357 14.892C7.83573 14.892 5.57167 13.8681 5.57167 12.6041C5.57167 10.9339 8.86119 10.324 10.6357 10.324C12.3872 10.324 15.6997 10.9448 15.6997 12.6041ZM26.8997 17.4599C26.8997 16.6842 27.5236 16.0599 28.2997 16.0599H46.2997C47.0677 16.0599 47.6917 16.6842 47.6917 17.4599V30.8201H26.8997V17.4599ZM28.2997 47.9162C27.5236 47.9162 26.8997 47.292 26.8997 46.5162V32.4201H47.6917V46.5162C47.6917 47.292 47.0677 47.9162 46.2997 47.9162H28.2997Z" fill="#FB9D2F"/>
<path id="Vector_2" d="M40.7877 21.8119H40.6357V20.876C40.6357 19.124 39.2117 17.6998 37.4597 17.6998C35.7156 17.6998 34.2917 19.124 34.2917 20.876V21.8119H34.1396C33.2037 21.8119 32.4437 22.5721 32.4437 23.508V27.7881C32.4437 28.724 33.2037 29.4842 34.1396 29.4842H40.7877C41.7236 29.4842 42.4837 28.724 42.4837 27.7881V23.508C42.4837 22.5721 41.7236 21.8119 40.7877 21.8119ZM39.0357 21.7959H35.8917V20.876C35.8917 20.0041 36.5957 19.2998 37.4677 19.2998C38.3316 19.2998 39.0357 20.0041 39.0357 20.876V21.7959Z" fill="#FB9D2F"/>
<path id="Vector_3" d="M40.7877 38.1958H40.6357V37.2599C40.6357 35.5079 39.2117 34.0841 37.4597 34.0841C36.4677 34.0841 35.5236 34.5638 34.9236 35.356C34.6597 35.7079 34.7316 36.2118 35.0837 36.4759C35.4357 36.74 35.9396 36.6681 36.2037 36.3161C36.5076 35.9161 36.9637 35.6841 37.4677 35.6841C38.3316 35.6841 39.0357 36.3958 39.0357 37.2599V38.1798C38.9536 38.1801 34.0575 38.1961 34.1396 38.1958C33.2037 38.1958 32.4437 38.956 32.4437 39.8919V44.172C32.4437 45.1161 33.2037 45.8759 34.1396 45.8759H40.7877C41.7236 45.8759 42.4837 45.1161 42.4837 44.172V39.8919C42.4837 38.956 41.7236 38.1958 40.7877 38.1958Z" fill="#FB9D2F"/>
</g>
</svg>
