<svg width="52" height="54" viewBox="0 0 52 54" fill="none" xmlns="http://www.w3.org/2000/svg">
<g id="Mechanic">
<path id="Vector" d="M48.6199 23.1802C48.2279 22.8923 47.6918 22.8443 47.2678 23.0525C46.8199 23.2685 46.5399 23.7326 46.5479 24.1884L46.5239 27.6603L43.8838 29.1482L41.2758 27.6205L41.2918 24.1404C41.2999 23.6603 41.0279 23.2123 40.5959 22.9884C40.1639 22.7724 39.6439 22.8123 39.2279 23.1162C37.3879 24.5404 36.3319 26.6923 36.3239 29.0123C36.2999 31.4525 37.4599 33.7642 39.4439 35.1962C39.7639 35.4365 39.9559 35.7802 39.9559 36.1482L39.9479 37.2763C37.9933 35.8538 35.6928 35.0763 33.204 35.0763C33.0597 35.0763 27.7382 35.0763 27.9719 35.0763V31.9564C30.8999 30.3962 32.9959 27.4685 33.3959 24.0365C34.9479 23.6841 36.1079 22.3005 36.1079 20.6365C36.1079 20.3404 36.0678 20.0443 35.9959 19.7724C36.1319 19.6283 36.2439 19.4603 36.3399 19.2763C36.9106 18.1839 36.4885 16.816 35.3639 16.2283C35.2838 16.1884 35.2119 16.1482 35.1319 16.1083V15.5162C35.1319 9.43647 30.8439 4.34038 25.1399 3.09233C25.1391 3.09233 25.1383 3.09194 25.1375 3.09194C25.1221 1.75366 23.9306 0.675537 22.4568 0.675537C20.9862 0.675537 19.7976 1.74937 19.777 3.08335C19.7753 3.08374 19.7736 3.08374 19.7719 3.08413C14.0359 4.30835 9.71587 9.42046 9.71587 15.5162V16.0365C8.28822 16.8537 8.07563 18.1678 8.60395 19.1802C8.68384 19.3326 8.78794 19.4763 8.89985 19.6044C8.79595 19.9326 8.73989 20.2763 8.73989 20.6365C8.73989 22.3244 9.93989 23.7244 11.5159 24.0525H11.5239C11.9159 27.4525 13.9799 30.3564 16.8758 31.9244V35.0763C16.711 35.0763 11.8424 35.0763 12.0359 35.0763C5.54674 35.0763 0.555908 40.4225 0.555908 46.5564V50.5083C0.555908 52.0603 1.81987 53.3244 3.37192 53.3244H43.7639C45.8918 53.3244 47.6359 51.5884 47.6519 49.4603L47.7239 36.1962C47.7239 35.8283 47.9159 35.4841 48.2439 35.2525C50.2279 33.8443 51.4279 31.5564 51.4439 29.1244C51.4599 26.8123 50.4359 24.6525 48.6199 23.1802ZM8.97192 42.8763H7.55591C7.11587 42.8763 6.75591 43.2365 6.75591 43.6763V51.7244H3.37192C2.69985 51.7244 2.15591 51.1802 2.15591 50.5083V46.5564C2.15591 42.2685 4.96392 38.4763 8.97192 37.1642V42.8763ZM33.5239 15.2923C33.4999 15.2841 33.4838 15.2763 33.4678 15.2685C30.6184 13.9257 30.2412 13.8899 28.3399 13.3724H28.3319C28.082 10.4727 27.0818 6.65468 24.9479 4.70054C29.9982 5.86066 33.5239 10.4778 33.5239 15.2923ZM19.9159 4.69233C17.7852 6.64428 16.7765 10.4471 16.5239 13.3244C13.614 14.0234 11.7932 15.0327 11.3239 15.2205C11.4057 10.397 14.8465 5.86884 19.9159 4.69233ZM10.9159 18.7083C10.5959 18.8763 10.1879 18.7564 10.0199 18.4283C9.87239 18.1665 9.94277 17.7191 10.2999 17.5404C19.5745 12.4129 26.8193 13.7442 34.6279 17.6525C34.9629 17.8197 35.075 18.254 34.9159 18.5404C34.7559 18.8603 34.3959 19.0123 34.0199 18.8205C30.5543 17.0104 27.1207 15.583 22.7479 15.5162C18.2952 15.2872 14.4934 16.9216 10.9159 18.7083ZM13.0439 22.8365V19.4205C16.7595 17.5742 20.714 16.9545 22.6999 17.1162C25.1783 17.1438 28.404 17.7927 31.8678 19.5244V22.8365C31.8678 27.6571 27.9389 31.5564 23.1399 31.5564H21.7719C17.014 31.5564 13.0439 27.6837 13.0439 22.8365ZM25.5719 32.9083V35.2365C25.4912 35.315 22.2172 38.4971 22.4279 38.2923C22.3478 38.2147 19.0649 35.032 19.2758 35.2365V32.9083C20.9144 33.1446 21.1865 33.1564 21.7719 33.1564H23.1399C24.0295 33.1564 24.5854 33.0561 25.5719 32.9083ZM30.2599 42.8763H14.9799V36.6763H17.3319L21.9319 41.5083C22.0758 41.6205 22.2519 41.6763 22.4279 41.6763C22.604 41.6763 22.7799 41.6205 22.9239 41.5083L27.5159 36.6763H30.2599V42.8763ZM38.4838 51.7244V43.6763C38.4838 43.2365 38.1239 42.8763 37.6838 42.8763H36.2678V37.1642C37.6599 37.6205 38.8999 38.3724 39.9399 39.3404L39.8758 49.4123C39.8678 50.2603 40.1319 51.0603 40.6279 51.7244H38.4838ZM47.3159 33.9482C46.5719 34.4763 46.1239 35.3083 46.1239 36.1884L46.0519 49.4525C46.0419 50.697 45.0194 51.7244 43.7639 51.7244C42.5066 51.7244 41.4592 50.7019 41.4758 49.4205C41.4763 49.3345 41.5565 36.0619 41.5559 36.1564C41.5559 35.2763 41.1159 34.4365 40.3799 33.9005C38.8199 32.7724 37.8999 30.9564 37.9239 29.0205C37.9319 27.4205 38.5719 25.9162 39.6918 24.8283L39.6758 27.6685C39.6678 28.2044 39.9559 28.7005 40.4199 28.9724L43.1239 30.5642C43.5879 30.8283 44.1639 30.8365 44.6279 30.5724L47.3559 29.0283C47.8279 28.7642 48.1159 28.2685 48.1239 27.7326L48.1479 24.9083C49.2439 26.0205 49.8519 27.5244 49.8439 29.1162C49.8279 31.0283 48.8838 32.8365 47.3159 33.9482Z" fill="#FB9D2F"/>
<path id="Vector_2" d="M43.804 46.8364C43.0595 46.8364 42.3399 47.4505 42.3399 48.3083C42.3399 49.1665 43.06 49.7802 43.804 49.7802C44.5627 49.7802 45.2758 49.1576 45.2758 48.3083C45.2758 47.4692 44.5712 46.8364 43.804 46.8364Z" fill="#FB9D2F"/>
</g>
</svg>
