<svg width="50" height="52" viewBox="0 0 50 52" fill="none" xmlns="http://www.w3.org/2000/svg">
<g id="Car_Diagnostics">
<path id="Vector" d="M6.12793 42.0397H17.14V45.4908H15.5353C14.0713 45.4908 12.8787 46.6729 12.8787 48.1369V50.1319C12.8787 50.7283 13.3666 51.2162 13.9631 51.2162H36.04C36.6365 51.2162 37.1244 50.7283 37.1244 50.1319V48.1369C37.1244 46.6729 35.9318 45.4908 34.4678 45.4908H32.8631V42.0397H43.8641C47.1439 42.0397 49.8 39.3838 49.8 36.1115C49.7232 -4.25489 49.7497 9.66754 49.7439 6.65569C49.7439 3.41584 47.1121 0.783813 43.8721 0.783813H6.13613C2.89609 0.783813 0.264059 3.41584 0.264059 6.65569C0.257509 9.66754 0.287788 -4.25489 0.199997 36.1115C0.199997 39.3838 2.86406 42.0397 6.12793 42.0397ZM25.008 39.1756C24.16 39.1756 23.4721 38.4955 23.4721 37.6557C23.4721 36.8076 24.16 36.1197 25.008 36.1197C25.848 36.1197 26.5279 36.8076 26.5279 37.6557C26.5279 38.4955 25.848 39.1756 25.008 39.1756ZM1.86406 6.65569C1.86406 4.30374 3.77597 2.38381 6.13613 2.38381H43.8721C46.224 2.38381 48.1439 4.30374 48.1439 6.65569V33.2557H1.86406V6.65569Z" fill="#FB9D2F"/>
<path id="Vector_2" d="M36.8881 4.90369C32.2868 4.90369 28.624 8.61675 28.624 13.1677C28.624 17.7275 32.3361 21.4396 36.8881 21.4396C41.5159 21.4396 45.16 17.6326 45.16 13.1677C45.16 8.60759 41.448 4.90369 36.8881 4.90369ZM38.16 15.8076C37.7521 16.0076 37.3279 16.1115 36.8881 16.1115C35.2641 16.1115 33.9439 14.7916 33.9439 13.1677C33.9439 11.5435 35.2641 10.2236 36.8881 10.2236C38.5121 10.2236 39.832 11.5435 39.832 13.1677C39.832 14.2955 39.192 15.3037 38.16 15.8076ZM40.4961 18.7756L39.5521 16.8314C40.7279 15.9838 41.432 14.6396 41.432 13.1677C41.432 10.9357 39.816 9.07166 37.6881 8.69548V6.55173C40.992 6.94353 43.56 9.75955 43.56 13.1677C43.56 15.4314 42.376 17.5517 40.4961 18.7756Z" fill="#FB9D2F"/>
<path id="Vector_3" d="M36.184 29.9037H30.824C30.384 29.9037 30.024 30.2635 30.024 30.7037C30.024 31.1517 30.384 31.5037 30.824 31.5037H36.184C36.632 31.5037 36.984 31.1517 36.984 30.7037C36.984 30.2635 36.632 29.9037 36.184 29.9037Z" fill="#FB9D2F"/>
<path id="Vector_4" d="M42.96 26.4076H30.824C30.384 26.4076 30.024 26.7677 30.024 27.2076C30.024 27.6478 30.384 28.0076 30.824 28.0076H42.96C43.4 28.0076 43.76 27.6478 43.76 27.2076C43.76 26.7677 43.4 26.4076 42.96 26.4076Z" fill="#FB9D2F"/>
<path id="Vector_5" d="M42.96 22.9037H30.824C30.384 22.9037 30.024 23.2635 30.024 23.7037C30.024 24.1517 30.384 24.5037 30.824 24.5037H42.96C43.4 24.5037 43.76 24.1517 43.76 23.7037C43.76 23.2635 43.4 22.9037 42.96 22.9037Z" fill="#FB9D2F"/>
<path id="Vector_6" d="M27 17.7275H25.592C25.1279 17.7275 24.7121 17.9115 24.416 18.2158C24.408 18.2236 24.4 18.2314 24.392 18.2396C24.208 17.4236 23.9041 16.4158 23.4 15.5357C22.8801 14.6396 21.96 14.0556 20.9361 13.9275C17.56 13.5357 14.192 13.5357 10.816 13.9275C9.79199 14.0556 8.87207 14.6396 8.35996 15.5357C7.84804 16.4158 7.54394 17.4236 7.35996 18.2314C7.35215 18.2236 7.35215 18.2236 7.34394 18.2158C7.04804 17.9115 6.63203 17.7275 6.16816 17.7275H4.75996C4.47207 17.7275 4.24004 17.9595 4.24004 18.2478V19.3916C4.24004 19.6799 4.47207 19.9115 4.75996 19.9115H7C6.62402 20.2799 5.36816 21.6076 5.36816 23.2877V26.9357C5.36816 27.3838 5.72793 27.7517 6.17597 27.7517H6.21601V30.1595C6.21601 30.6158 6.58398 30.9756 7.03203 30.9756H9.46406C9.9041 30.9756 10.2721 30.6158 10.2721 30.1595V27.7517H21.4801V30.1595C21.4801 30.6158 21.84 30.9756 22.2961 30.9756H24.7201C25.1682 30.9756 25.5361 30.6158 25.5361 30.1595V27.7517H25.576C26.024 27.7517 26.392 27.3838 26.392 26.9357V23.2877C26.392 21.6076 25.1279 20.2799 24.7521 19.9115H27C27.2801 19.9115 27.5201 19.6799 27.5201 19.3916V18.2478C27.5201 17.9595 27.2801 17.7275 27 17.7275ZM9.73613 16.3517C9.73613 16.3435 9.73613 16.3435 9.74394 16.3357C10 15.8799 10.4721 15.5756 11.016 15.5115C14.2785 15.1363 17.4751 15.1403 20.7521 15.5115C21.2801 15.5756 21.7521 15.8877 22.016 16.3357C22.5187 17.2266 22.7689 18.2265 22.6721 19.4877V19.5197H9.08008C9 18.4236 9.18398 17.3037 9.73613 16.3517ZM10.56 23.7357C8.94922 23.7357 8.56225 23.8507 8.22402 23.8314C7.72011 23.7998 7.32011 23.3275 7.32011 22.7517C7.32011 22.4635 7.35996 22.1756 7.48808 21.9275C7.808 21.3115 8.32011 21.5357 9.47207 21.9037C10.248 22.1517 10.6561 22.6955 10.8721 23.1275C11.008 23.3998 10.832 23.7357 10.56 23.7357ZM18.9201 25.2635C18.9201 25.3838 18.816 25.4877 18.6961 25.4877H13.5682C13.448 25.4877 13.3439 25.3838 13.3439 25.2635V23.6314C13.3439 23.5115 13.448 23.4076 13.5682 23.4076H18.6961C18.816 23.4076 18.9201 23.5115 18.9201 23.6314V25.2635ZM24.792 21.9275C24.9201 22.1756 24.96 22.4635 24.96 22.7517C24.96 23.3275 24.56 23.8076 24.0561 23.8314C23.6538 23.8543 23.5389 23.7357 21.7121 23.7357C21.448 23.7357 21.2801 23.3998 21.408 23.1275C21.616 22.6955 22.024 22.1517 22.808 21.9037C23.96 21.5357 24.4721 21.3115 24.792 21.9275Z" fill="#FB9D2F"/>
<path id="Vector_7" d="M7.8 11.4717H13.3439C13.784 11.4717 14.1439 11.1115 14.1439 10.6717C14.1439 10.2237 13.784 9.8717 13.3439 9.8717H7.8C7.35996 9.8717 7 10.2237 7 10.6717C7 11.1115 7.35996 11.4717 7.8 11.4717Z" fill="#FB9D2F"/>
<path id="Vector_8" d="M7.8 7.39163H16.1279C16.576 7.39163 16.9279 7.03147 16.9279 6.59163C16.9279 6.14358 16.576 5.79163 16.1279 5.79163H7.8C7.35996 5.79163 7 6.14358 7 6.59163C7 7.03147 7.35996 7.39163 7.8 7.39163Z" fill="#FB9D2F"/>
</g>
</svg>
