<svg width="185" height="44" viewBox="0 0 185 44" fill="none" xmlns="http://www.w3.org/2000/svg">
<path d="M181.748 32.9702H184.073V40.9892H181.867V40.0353C181.256 40.7358 180.362 41.1084 179.378 41.1084C177.366 41.1084 175.95 39.9757 175.95 37.5014V32.9702H178.275V37.1586C178.275 38.5 178.871 39.0962 179.9 39.0962C180.973 39.0962 181.748 38.4106 181.748 36.935V32.9702Z" fill="white"/>
<path d="M170.563 32.8511C172.456 32.8511 173.887 33.9541 173.887 36.3985V40.9893H171.562V36.7563C171.562 35.4595 170.966 34.8633 169.937 34.8633C168.819 34.8633 168.014 35.5489 168.014 37.0246V40.9893H165.689V29.9297H168.014V33.805C168.64 33.179 169.535 32.8511 170.563 32.8511Z" fill="white"/>
<path d="M162.668 41.1084C161.863 41.1084 161.222 40.4973 161.222 39.6477C161.222 38.7832 161.863 38.2168 162.668 38.2168C163.473 38.2168 164.113 38.7832 164.113 39.6477C164.113 40.4973 163.473 41.1084 162.668 41.1084Z" fill="white"/>
<path d="M156.568 41.1085C155.211 41.1085 153.84 40.7359 153.095 40.244L153.87 38.5747C154.585 39.0367 155.673 39.3497 156.657 39.3497C157.73 39.3497 158.133 39.0665 158.133 38.6194C158.133 37.3077 153.289 38.6492 153.289 35.4446C153.289 33.9242 154.66 32.8511 157 32.8511C158.103 32.8511 159.325 33.1045 160.085 33.5516L159.31 35.2061C158.52 34.7589 157.73 34.6099 157 34.6099C155.957 34.6099 155.509 34.9378 155.509 35.3551C155.509 36.7264 160.354 35.3999 160.354 38.5598C160.354 40.0503 158.967 41.1085 156.568 41.1085Z" fill="white"/>
<path d="M147.905 32.8511C150.349 32.8511 151.765 33.9839 151.765 36.4134V40.9893H149.589V39.9907C149.157 40.721 148.322 41.1085 147.145 41.1085C145.267 41.1085 144.149 40.0652 144.149 38.679C144.149 37.263 145.148 36.2793 147.592 36.2793H149.44C149.44 35.2806 148.844 34.6993 147.592 34.6993C146.742 34.6993 145.863 34.9825 145.282 35.4446L144.447 33.8199C145.326 33.1939 146.623 32.8511 147.905 32.8511ZM147.726 39.5435C148.501 39.5435 149.172 39.1858 149.44 38.4554V37.6356H147.845C146.757 37.6356 146.414 38.0381 146.414 38.5747C146.414 39.156 146.906 39.5435 147.726 39.5435Z" fill="white"/>
<path d="M142.739 38.9619L143.365 40.6015C142.888 40.9443 142.188 41.1082 141.472 41.1082C139.579 41.1082 138.476 40.1394 138.476 38.2315V34.9375H137.239V33.1489H138.476V31.1963H140.802V33.1489H142.799V34.9375H140.802V38.2017C140.802 38.8874 141.174 39.26 141.8 39.26C142.143 39.26 142.486 39.1557 142.739 38.9619Z" fill="white"/>
<path d="M132.228 32.8511C134.673 32.8511 136.089 33.9839 136.089 36.4134V40.9893H133.913V39.9907C133.48 40.721 132.646 41.1085 131.468 41.1085C129.59 41.1085 128.472 40.0652 128.472 38.679C128.472 37.263 129.471 36.2793 131.915 36.2793H133.764C133.764 35.2806 133.167 34.6993 131.915 34.6993C131.066 34.6993 130.186 34.9825 129.605 35.4446L128.77 33.8199C129.65 33.1939 130.946 32.8511 132.228 32.8511ZM132.049 39.5435C132.825 39.5435 133.495 39.1858 133.764 38.4554V37.6356H132.169C131.081 37.6356 130.738 38.0381 130.738 38.5747C130.738 39.156 131.23 39.5435 132.049 39.5435Z" fill="white"/>
<path d="M127.063 38.9619L127.689 40.6015C127.212 40.9443 126.511 41.1082 125.796 41.1082C123.903 41.1082 122.8 40.1394 122.8 38.2315V34.9375H121.563V33.1489H122.8V31.1963H125.125V33.1489H127.122V34.9375H125.125V38.2017C125.125 38.8874 125.498 39.26 126.124 39.26C126.466 39.26 126.809 39.1557 127.063 38.9619Z" fill="white"/>
<path d="M116.765 39.2006H120.983V40.9892H113.828V39.5881L117.912 34.7588H113.933V32.9702H120.849V34.3713L116.765 39.2006Z" fill="white"/>
<path d="M108.415 32.8511C110.859 32.8511 112.275 33.9839 112.275 36.4134V40.9893H110.099V39.9907C109.667 40.721 108.832 41.1085 107.655 41.1085C105.777 41.1085 104.659 40.0652 104.659 38.679C104.659 37.263 105.658 36.2793 108.102 36.2793H109.95C109.95 35.2806 109.354 34.6993 108.102 34.6993C107.252 34.6993 106.373 34.9825 105.792 35.4446L104.957 33.8199C105.836 33.1939 107.133 32.8511 108.415 32.8511ZM108.236 39.5435C109.011 39.5435 109.682 39.1858 109.95 38.4554V37.6356H108.355C107.267 37.6356 106.924 38.0381 106.924 38.5747C106.924 39.156 107.416 39.5435 108.236 39.5435Z" fill="white"/>
<path d="M100.81 32.9703H103.016V39.6478C103.016 42.6289 101.407 44.0002 98.515 44.0002C96.9947 44.0002 95.5191 43.6275 94.5801 42.8972L95.5042 41.2278C96.1898 41.7793 97.3077 42.137 98.3362 42.137C99.9757 42.137 100.691 41.3917 100.691 39.9459V39.6031C100.08 40.2739 99.2007 40.6018 98.1573 40.6018C95.9364 40.6018 94.1478 39.0665 94.1478 36.7264C94.1478 34.3863 95.9364 32.8511 98.1573 32.8511C99.2752 32.8511 100.199 33.2237 100.81 33.9988V32.9703ZM98.6194 38.6939C99.8416 38.6939 100.721 37.9039 100.721 36.7264C100.721 35.5489 99.8416 34.7589 98.6194 34.7589C97.3971 34.7589 96.5028 35.5489 96.5028 36.7264C96.5028 37.9039 97.3971 38.6939 98.6194 38.6939Z" fill="white"/>
<path d="M89.5235 41.1085C88.1671 41.1085 86.7958 40.7359 86.0506 40.244L86.8256 38.5747C87.5411 39.0367 88.6292 39.3497 89.6129 39.3497C90.6861 39.3497 91.0885 39.0665 91.0885 38.6194C91.0885 37.3077 86.2443 38.6492 86.2443 35.4446C86.2443 33.9242 87.6156 32.8511 89.9557 32.8511C91.0587 32.8511 92.2809 33.1045 93.0411 33.5516L92.266 35.2061C91.4761 34.7589 90.6861 34.6099 89.9557 34.6099C88.9124 34.6099 88.4652 34.9378 88.4652 35.3551C88.4652 36.7264 93.3094 35.3999 93.3094 38.5598C93.3094 40.0503 91.9232 41.1085 89.5235 41.1085Z" fill="white"/>
<path d="M81.1174 39.2006H85.3356V40.9892H78.1811V39.5881L82.2651 34.7588H78.2854V32.9702H85.2014V34.3713L81.1174 39.2006Z" fill="white"/>
<path d="M75.412 31.8523C74.5475 31.8523 73.9662 31.2859 73.9662 30.5555C73.9662 29.8252 74.5475 29.2588 75.412 29.2588C76.2765 29.2588 76.8578 29.7954 76.8578 30.5108C76.8578 31.2859 76.2765 31.8523 75.412 31.8523ZM74.2494 40.9892V32.9702H76.5746V40.9892H74.2494Z" fill="white"/>
<path d="M71.0648 32.9702H73.3006L69.9171 40.9892H67.5174L64.1488 32.9702H66.5485L68.7694 38.4255L71.0648 32.9702Z" fill="white"/>
<path d="M62.0206 31.8523C61.1561 31.8523 60.5748 31.2859 60.5748 30.5555C60.5748 29.8252 61.1561 29.2588 62.0206 29.2588C62.8851 29.2588 63.4664 29.7954 63.4664 30.5108C63.4664 31.2859 62.8851 31.8523 62.0206 31.8523ZM60.858 40.9892V32.9702H63.1832V40.9892H60.858Z" fill="white"/>
<path d="M57.0534 40.9893L54.5196 37.8443L53.4017 38.9473V40.9893H51.0765V29.9297H53.4017V36.1899L56.8001 32.9703H59.5724L56.2337 36.3687L59.8705 40.9893H57.0534Z" fill="white"/>
<path d="M45.1116 32.8511C47.5561 32.8511 48.9721 33.9839 48.9721 36.4134V40.9893H46.7959V39.9907C46.3636 40.721 45.529 41.1085 44.3514 41.1085C42.4734 41.1085 41.3555 40.0652 41.3555 38.679C41.3555 37.263 42.3541 36.2793 44.7986 36.2793H46.6468C46.6468 35.2806 46.0506 34.6993 44.7986 34.6993C43.949 34.6993 43.0696 34.9825 42.4883 35.4446L41.6536 33.8199C42.533 33.1939 43.8298 32.8511 45.1116 32.8511ZM44.9327 39.5435C45.7078 39.5435 46.3785 39.1858 46.6468 38.4554V37.6356H45.052C43.9639 37.6356 43.6211 38.0381 43.6211 38.5747C43.6211 39.156 44.113 39.5435 44.9327 39.5435Z" fill="white"/>
<path d="M36.1689 39.2006H40.3871V40.9892H33.2326V39.5881L37.3166 34.7588H33.337V32.9702H40.253V34.3713L36.1689 39.2006Z" fill="white"/>
<path d="M28.5636 41.1085C27.2072 41.1085 25.8359 40.7359 25.0907 40.244L25.8657 38.5747C26.5812 39.0367 27.6693 39.3497 28.653 39.3497C29.7262 39.3497 30.1286 39.0665 30.1286 38.6194C30.1286 37.3077 25.2844 38.6492 25.2844 35.4446C25.2844 33.9242 26.6557 32.8511 28.9958 32.8511C30.0988 32.8511 31.321 33.1045 32.0812 33.5516L31.3061 35.2061C30.5162 34.7589 29.7262 34.6099 28.9958 34.6099C27.9525 34.6099 27.5053 34.9378 27.5053 35.3551C27.5053 36.7264 32.3495 35.3999 32.3495 38.5598C32.3495 40.0503 30.9633 41.1085 28.5636 41.1085Z" fill="white"/>
<path d="M21.3864 32.9702H23.7116V40.9892H21.5056V40.0353C20.8945 40.7358 20.0002 41.1084 19.0165 41.1084C17.0043 41.1084 15.5883 39.9757 15.5883 37.5014V32.9702H17.9135V37.1586C17.9135 38.5 18.5097 39.0962 19.5381 39.0962C20.6113 39.0962 21.3864 38.4106 21.3864 36.935V32.9702Z" fill="white"/>
<path d="M10.2697 32.8511C12.1775 32.8511 13.5488 33.9541 13.5488 36.3985V40.9893H11.2236V36.7562C11.2236 35.4595 10.6423 34.8633 9.70328 34.8633C8.65991 34.8633 7.92956 35.534 7.92956 36.9649V40.9893H5.60435V36.7562C5.60435 35.4595 5.05286 34.8633 4.08402 34.8633C3.05556 34.8633 2.32521 35.534 2.32521 36.9649V40.9893H0V32.9703H2.22087V33.8944C2.81708 33.2088 3.71139 32.8511 4.73985 32.8511C5.85774 32.8511 6.81167 33.2833 7.37807 34.1627C8.01899 33.3429 9.06235 32.8511 10.2697 32.8511Z" fill="white"/>
<g clip-path="url(#clip0_16_386)">
<path d="M98.9344 17.0837C98.9325 17.373 98.8167 17.6499 98.6121 17.8544C98.4076 18.059 98.1307 18.1748 97.8414 18.1767H93.4344C93.145 18.1751 92.868 18.0594 92.6633 17.8548C92.4587 17.6502 92.343 17.3731 92.3414 17.0837C92.3433 16.7944 92.4591 16.5175 92.6637 16.313C92.8682 16.1084 93.1451 15.9926 93.4344 15.9906H97.8414C98.1303 15.9939 98.4064 16.1101 98.6107 16.3144C98.815 16.5187 98.9312 16.7948 98.9344 17.0837ZM83.5622 17.0837C83.5606 17.3731 83.4449 17.6502 83.2403 17.8548C83.0356 18.0594 82.7586 18.1751 82.4692 18.1767H78.0622C77.7728 18.1751 77.4957 18.0594 77.2911 17.8548C77.0865 17.6502 76.9708 17.3731 76.9692 17.0837C76.9711 16.7944 77.0869 16.5175 77.2915 16.313C77.496 16.1084 77.7729 15.9926 78.0622 15.9906H82.4692C82.7582 15.9929 83.0348 16.1089 83.2391 16.3134C83.4434 16.5179 83.559 16.7946 83.561 17.0837H83.5622ZM81.2768 6.93947H95.4416L97.1793 11.3638L97.0936 11.3589H79.5378L81.2768 6.93947ZM103.237 10.3006C103.165 9.86915 102.925 9.48381 102.57 9.22907C102.214 8.97434 101.772 8.87101 101.34 8.94174L101.35 8.94049L98.6388 9.38268C98.5994 9.39154 98.5604 9.40232 98.5221 9.41498L98.5283 9.41249L96.7819 4.96826H79.9316L78.1852 9.41249C78.1496 9.40135 78.1135 9.39182 78.0771 9.38392L75.3631 8.94049C74.9341 8.87248 74.4956 8.97615 74.1425 9.22908C73.7893 9.48201 73.55 9.86383 73.4764 10.2919L73.4751 10.3018C73.4071 10.7308 73.5108 11.1694 73.7637 11.5225C74.0166 11.8756 74.3985 12.1149 74.8265 12.1886L74.8365 12.1898L76.4152 12.4494C75.4129 13.4113 74.8323 14.731 74.8004 16.1198V23.6855H80.2657V20.8286H95.7037V23.6855H101.169V19.6511C101.191 19.5567 101.204 19.4487 101.204 19.3369V16.1248C101.174 14.7858 100.635 13.5084 99.6971 12.5525L99.6983 12.5538L101.892 12.1936C102.323 12.1211 102.708 11.8808 102.962 11.5254C103.216 11.1699 103.319 10.7281 103.248 10.2969L103.249 10.3068L103.237 10.3006Z" fill="white"/>
</g>
<defs>
<clipPath id="clip0_16_386">
<rect width="29.8104" height="29.8104" fill="white" transform="translate(73.4528)"/>
</clipPath>
</defs>
</svg>
