<svg width="25" height="24" viewBox="0 0 25 24" fill="none" xmlns="http://www.w3.org/2000/svg">
<g id="PaperPlaneRight">
<path id="Vector" d="M14 12H8" stroke="white" stroke-linecap="round" stroke-linejoin="round"/>
<path id="Vector_2" d="M5.04597 20.745C4.99324 20.889 4.98592 21.0457 5.02502 21.194C5.06412 21.3423 5.14774 21.4751 5.26462 21.5744C5.3815 21.6737 5.52602 21.7348 5.67869 21.7494C5.83136 21.764 5.98485 21.7315 6.11847 21.6562L21.8685 12.6478C21.9857 12.5829 22.0834 12.4878 22.1514 12.3724C22.2195 12.257 22.2554 12.1255 22.2554 11.9915C22.2554 11.8575 22.2195 11.726 22.1514 11.6106C22.0834 11.4952 21.9857 11.4001 21.8685 11.3353L6.11847 2.34933C5.98526 2.27483 5.83248 2.24274 5.68055 2.25735C5.52863 2.27197 5.38477 2.33259 5.2682 2.43112C5.15164 2.52965 5.06791 2.6614 5.0282 2.80878C4.98849 2.95615 4.99469 3.11213 5.04597 3.25589L8.00003 12L5.04597 20.745Z" stroke="white" stroke-linecap="round" stroke-linejoin="round"/>
</g>
</svg>
