<svg width="19" height="15" viewBox="0 0 19 15" fill="none" xmlns="http://www.w3.org/2000/svg">
<path d="M17.375 0.9375H1.625C1.45095 0.9375 1.28403 1.00664 1.16096 1.12971C1.03789 1.25278 0.96875 1.4197 0.96875 1.59375V12.75C0.96875 13.0981 1.10703 13.4319 1.35317 13.6781C1.59931 13.9242 1.93315 14.0625 2.28125 14.0625H16.7188C17.0668 14.0625 17.4007 13.9242 17.6468 13.6781C17.893 13.4319 18.0312 13.0981 18.0312 12.75V1.59375C18.0312 1.4197 17.9621 1.25278 17.839 1.12971C17.716 1.00664 17.549 0.9375 17.375 0.9375ZM7.0973 7.5L2.28125 11.9141V3.0859L7.0973 7.5ZM8.06855 8.39004L9.05293 9.29648C9.174 9.40763 9.33237 9.46929 9.49672 9.46929C9.66107 9.46929 9.81944 9.40763 9.94051 9.29648L10.9249 8.39004L15.6827 12.75H3.31238L8.06855 8.39004ZM11.9027 7.5L16.7188 3.08508V11.9149L11.9027 7.5Z" fill="#FB9D2F"/>
</svg>
