<svg width="21" height="21" viewBox="0 0 21 21" fill="none" xmlns="http://www.w3.org/2000/svg">
<path d="M14.4375 1.3125H6.5625C6.04036 1.3125 5.5396 1.51992 5.17038 1.88913C4.80117 2.25835 4.59375 2.75911 4.59375 3.28125V17.7188C4.59375 18.2409 4.80117 18.7417 5.17038 19.1109C5.5396 19.4801 6.04036 19.6875 6.5625 19.6875H14.4375C14.9596 19.6875 15.4604 19.4801 15.8296 19.1109C16.1988 18.7417 16.4062 18.2409 16.4062 17.7188V3.28125C16.4062 2.75911 16.1988 2.25835 15.8296 1.88913C15.4604 1.51992 14.9596 1.3125 14.4375 1.3125ZM6.5625 2.625H14.4375C14.6115 2.625 14.7785 2.69414 14.9015 2.81721C15.0246 2.94028 15.0938 3.1072 15.0938 3.28125V3.9375H5.90625V3.28125C5.90625 3.1072 5.97539 2.94028 6.09846 2.81721C6.22153 2.69414 6.38845 2.625 6.5625 2.625ZM14.4375 18.375H6.5625C6.38845 18.375 6.22153 18.3059 6.09846 18.1828C5.97539 18.0597 5.90625 17.8928 5.90625 17.7188V17.0625H15.0938V17.7188C15.0938 17.8928 15.0246 18.0597 14.9015 18.1828C14.7785 18.3059 14.6115 18.375 14.4375 18.375Z" fill="#FB9D2F"/>
</svg>
