<svg width="18" height="18" viewBox="0 0 18 18" fill="none" xmlns="http://www.w3.org/2000/svg">
<path d="M17.0214 13.362C16.8751 14.4736 16.3293 15.4939 15.4857 16.2323C14.6422 16.9708 13.5586 17.377 12.4375 17.375C5.92422 17.375 0.625 12.0758 0.625 5.56249C0.62299 4.44136 1.02916 3.35783 1.76764 2.51428C2.50612 1.67073 3.52642 1.12485 4.63797 0.97858C4.91905 0.944259 5.2037 1.00176 5.44941 1.14251C5.69513 1.28326 5.88873 1.4997 6.00133 1.75952L7.73383 5.62729V5.63714C7.82003 5.83602 7.85563 6.05316 7.83746 6.26917C7.81928 6.48517 7.74788 6.69331 7.62965 6.87499C7.61488 6.89714 7.5993 6.91764 7.58289 6.93815L5.875 8.96268C6.48941 10.2112 7.79535 11.5057 9.06027 12.1217L11.0569 10.4228C11.0765 10.4064 11.0971 10.391 11.1184 10.3769C11.3 10.2558 11.5088 10.1819 11.7261 10.1619C11.9434 10.1418 12.1622 10.1762 12.3629 10.2621L12.3735 10.267L16.238 11.9987C16.4983 12.1109 16.7153 12.3043 16.8565 12.55C16.9977 12.7958 17.0555 13.0806 17.0214 13.362Z" fill="#FB9D2F"/>
</svg>
