<svg width="19" height="19" viewBox="0 0 19 19" fill="none" xmlns="http://www.w3.org/2000/svg">
<path d="M9.5 0.96875C7.81268 0.96875 6.16325 1.4691 4.7603 2.40652C3.35734 3.34395 2.26387 4.67635 1.61816 6.23523C0.972446 7.79411 0.803499 9.50946 1.13268 11.1644C1.46186 12.8193 2.27438 14.3394 3.4675 15.5325C4.66062 16.7256 6.18074 17.5381 7.83564 17.8673C9.49054 18.1965 11.2059 18.0276 12.7648 17.3818C14.3237 16.7361 15.6561 15.6427 16.5935 14.2397C17.5309 12.8368 18.0313 11.1873 18.0313 9.5C18.0289 7.2381 17.1293 5.06954 15.5299 3.47013C13.9305 1.87073 11.7619 0.971139 9.5 0.96875ZM14.0938 10.1562H9.5C9.32596 10.1562 9.15904 10.0871 9.03596 9.96404C8.91289 9.84097 8.84375 9.67405 8.84375 9.5V4.90625C8.84375 4.7322 8.91289 4.56528 9.03596 4.44221C9.15904 4.31914 9.32596 4.25 9.5 4.25C9.67405 4.25 9.84097 4.31914 9.96404 4.44221C10.0871 4.56528 10.1563 4.7322 10.1563 4.90625V8.84375H14.0938C14.2678 8.84375 14.4347 8.91289 14.5578 9.03596C14.6809 9.15903 14.75 9.32595 14.75 9.5C14.75 9.67405 14.6809 9.84097 14.5578 9.96404C14.4347 10.0871 14.2678 10.1562 14.0938 10.1562Z" fill="#FB9D2F"/>
</svg>
